<svg xmlns="http://www.w3.org/2000/svg" width="595.28" height="261.486" viewBox="0 0 595.28 261.486"><path d="M127.687 62.094c-19.457 0-35.175 15.917-35.175 35.173v72.711c0 19.45 15.718 35.175 35.175 35.175 19.257 0 34.975-15.725 34.975-35.175v-13.164c0-.8-.651-1.449-1.447-1.449h-25.793c-.799 0-1.448.649-1.448 1.449v12.967c0 2.945-2.358 5.503-5.502 5.503-2.95 0-5.503-2.558-5.503-5.503v-72.315c0-2.946 2.553-5.501 5.503-5.501 3.144 0 5.502 2.555 5.502 5.501v12.961c0 .798.649 1.448 1.448 1.448h25.793c.796 0 1.447-.649 1.447-1.448v-13.16c0-19.257-15.719-35.173-34.975-35.173zM214.532 62.094c-19.456 0-35.175 15.917-35.175 35.173v72.711c0 19.45 15.719 35.175 35.175 35.175 19.257 0 34.976-15.725 34.976-35.175v-13.164c0-.8-.65-1.449-1.448-1.449h-25.793c-.797 0-1.448.649-1.448 1.449v12.967c0 2.945-2.357 5.503-5.501 5.503-2.952 0-5.503-2.558-5.503-5.503v-72.315c0-2.946 2.551-5.501 5.503-5.501 3.144 0 5.501 2.555 5.501 5.501v12.961c0 .798.651 1.448 1.448 1.448h25.793c.798 0 1.448-.649 1.448-1.448v-13.16c0-19.257-15.718-35.173-34.976-35.173zM326.637 173.415h-26.585c-.798 0-1.448-.651-1.448-1.444v-107.152c0-.795-.65-1.447-1.447-1.447h-27.563c-.798 0-1.448.652-1.448 1.447v137.606c0 .796.65 1.448 1.448 1.448h57.042c.798 0 1.447-.652 1.447-1.448v-27.562c.001-.792-.648-1.448-1.446-1.448zM460.683 63.372h-27.56c-.798 0-1.449.652-1.449 1.447v137.606c0 .796.651 1.448 1.449 1.448h27.56c.798 0 1.448-.652 1.448-1.448v-137.606c0-.795-.651-1.447-1.448-1.447zM55.351 63.372h-27.57c-.796 0-1.557.642-1.69 1.426l-23.487 137.65c-.135.783.408 1.426 1.203 1.426h27.959c.796 0 1.526-.646 1.621-1.434l1.589-13.097c.096-.787.826-1.434 1.621-1.434h9.584c.796 0 1.523.646 1.616 1.434l1.551 13.097c.094.787.822 1.434 1.617 1.434h27.174c.796 0 1.343-.643 1.217-1.426l-22.327-137.647c-.128-.787-.883-1.429-1.678-1.429zm-10.533 100.828c.066.61-.38 1.109-.997 1.109h-4.801c-.621 0-1.064-.504-.992-1.117l3.436-28.307 3.354 28.315v-.008.008zM392.082 63.372h-27.567c-.796 0-1.557.642-1.69 1.426l-23.488 137.65c-.133.783.408 1.426 1.204 1.426h27.959c.797 0 1.526-.646 1.621-1.434l1.59-13.097c.096-.787.824-1.434 1.623-1.434h9.582c.796 0 1.524.646 1.617 1.434l1.552 13.097c.094.787.821 1.434 1.617 1.434h27.173c.797 0 1.344-.643 1.215-1.426l-22.327-137.647c-.129-.787-.884-1.429-1.681-1.429zm-10.53 100.828c.064.61-.38 1.109-.998 1.109h-4.801c-.62 0-1.065-.504-.991-1.117l3.434-28.307 3.356 28.315v-.008.008zM586.552 63.372h-33.403c-.797 0-1.58.638-1.737 1.417l-14.817 71.779-15.01-71.779c-.165-.779-.949-1.417-1.747-1.417h-33.409c-.795 0-1.445.651-1.445 1.447v137.606c0 .796.65 1.448 1.445 1.448h27.519c.798 0 1.448-.652 1.448-1.448v-48.191l9.728 48.221c.155.78.935 1.419 1.731 1.419h19.475c.797 0 1.574-.639 1.726-1.421l9.536-48.221v48.193c0 .796.651 1.448 1.448 1.448h27.514c.799 0 1.448-.652 1.448-1.448v-137.606c-.002-.797-.651-1.447-1.45-1.447z"/></svg>